<svg xmlns="http://www.w3.org/2000/svg" width="40" height="143.5" viewBox="0 0 50.002 180.963">
  <g id="组_7" data-name="组 7" transform="translate(-217.847 -375.926)">
    <g id="组_4" data-name="组 4" transform="translate(218 440.482)">
      <path id="路径_2" data-name="路径 2" d="M266.4,503.827l-3.085.712a17.351,17.351,0,0,1-3.9.445H226.478a17.351,17.351,0,0,1-3.9-.445l-3.085-.712a1.132,1.132,0,0,0-1.176,1.762l3.2,4.484a3.681,3.681,0,0,0,3.144,1.539l6.007-.445q1.152-.086,2.307-.085h19.945q1.155,0,2.308.085l6.006.445a3.682,3.682,0,0,0,3.145-1.539l3.2-4.484A1.132,1.132,0,0,0,266.4,503.827Z" transform="translate(-218.098 -490.381)" fill="#000000"/>
      <path id="路径_3" data-name="路径 3" d="M236.515,488.072a3.681,3.681,0,0,0,3.144,1.539l6.007-.445q1.152-.086,2.307-.085h1.652q1.155,0,2.308.085l6.006.445a3.682,3.682,0,0,0,3.145-1.539l3.2-4.484a1.132,1.132,0,0,0-1.176-1.762l-3.085.712a17.351,17.351,0,0,1-3.9.445H241.478a17.351,17.351,0,0,1-3.9-.445l-3.085-.712a1.132,1.132,0,0,0-1.176,1.762Z" transform="translate(-223.951 -481.796)" fill="#000000"/>
      <path id="路径_4" data-name="路径 4" d="M263.865,541.841l-.212-1.2-1.271-7.206-.317-1.8-.456-2.585a4.4,4.4,0,0,0-6.3-3.172.619.619,0,0,0-.34.659l1.085,6.158.318,1.8.809,4.585a1.829,1.829,0,0,1-1.8,2.147H242.26a3.138,3.138,0,0,1-3.09-3.683l1.132-6.422.738-4.188a3.056,3.056,0,0,0-2.445-3.543,10.275,10.275,0,0,0-4.751.263h0a2.318,2.318,0,0,0-.795,4.025,3.37,3.37,0,0,1,1.1,3.219l-.276,1.568-1.482,8.407-1.4,7.959a.61.61,0,0,0,.327.652h0a4.4,4.4,0,0,0,5.411-1.18,2.514,2.514,0,0,1,1.952-.979h18.885a2.5,2.5,0,0,1,1.877.885,4.39,4.39,0,0,0,5.289,1.043h0a.612.612,0,0,0,.327-.652Z" transform="translate(-223.124 -497.963)" fill="#000000"/>
    </g>
    <g id="组_5" data-name="组 5" transform="translate(217.847 375.926)">
      <path id="路径_5" data-name="路径 5" d="M243.564,399.926a10.264,10.264,0,0,0-4.591,1.084h0a2.318,2.318,0,0,0-.089,4.1,3.2,3.2,0,0,1,1.647,2.8v1.775h6.1V402.99A3.064,3.064,0,0,0,243.564,399.926Z" transform="translate(-225.591 -385.292)" fill="#000000"/>
      <path id="路径_6" data-name="路径 6" d="M282.263,405.61l-3.085.712a17.347,17.347,0,0,1-1.927.332v-3.667a2.626,2.626,0,0,0-2.3-2.6l-.479-.06a6.99,6.99,0,0,0-3.993.684,1.22,1.22,0,0,0-.187,2.067,2.15,2.15,0,0,1,.86,1.72v1.974H260.177a1.829,1.829,0,0,0-1.829,1.829v3.049a1.22,1.22,0,0,0,1.22,1.22h9.211q1.155,0,2.307.085l.068,0v26.894a.611.611,0,0,0,.435.585h0a4.4,4.4,0,0,0,5.662-4.212V413.391a3.677,3.677,0,0,0,2.985-1.535l3.2-4.484A1.132,1.132,0,0,0,282.263,405.61Z" transform="translate(-233.652 -385.425)" fill="#000000"/>
      <path id="路径_7" data-name="路径 7" d="M230.415,386.987q1.152-.086,2.308-.085h19.641q1.155,0,2.308.085l6.006.445a3.681,3.681,0,0,0,3.144-1.539l3.2-4.484a1.132,1.132,0,0,0-1.176-1.762l-3.085.712a17.352,17.352,0,0,1-3.9.445h-9.566a5.475,5.475,0,0,1-5-3.83l0-.005a1.525,1.525,0,0,0-2.9.02v.005a5.338,5.338,0,0,1-4.9,3.81H226.227a17.351,17.351,0,0,1-3.9-.445l-3.085-.712a1.132,1.132,0,0,0-1.176,1.762l.326.456a15.108,15.108,0,0,1,2.814,8.781v31.623a21.047,21.047,0,0,1-.558,4.813l-.528,2.246a1.04,1.04,0,0,0,.7,1.145l.141.047a4.819,4.819,0,0,0,6.343-4.571V390.342a3.364,3.364,0,0,1,3.116-3.355Z" transform="translate(-217.847 -375.926)" fill="#000000"/>
      <path id="路径_8" data-name="路径 8" d="M242.348,437.878v8.082a.611.611,0,0,0,.435.585h0a4.4,4.4,0,0,0,5.662-4.212V415.926h-6.1Z" transform="translate(-227.408 -391.535)" fill="#000000"/>
      <path id="路径_9" data-name="路径 9" d="M266.007,428.926h-2.439a1.219,1.219,0,0,0-1.22,1.22v6.1a1.22,1.22,0,0,0,1.22,1.22h3.049a1.829,1.829,0,0,0,1.829-1.829v-4.268A2.439,2.439,0,0,0,266.007,428.926Z" transform="translate(-235.213 -396.608)" fill="#000000"/>
    </g>
    <g id="组_6" data-name="组 6" transform="translate(218.862 501.968)">
      <path id="路径_10" data-name="路径 10" d="M237.322,599.351a1.22,1.22,0,0,0-1.22,1.22v4.268a1.22,1.22,0,0,0,1.22,1.22h1.742a1.829,1.829,0,0,0,1.829-1.829v-2.744a2.2,2.2,0,0,0-2.439-2.134Z" transform="translate(-225.986 -589.157)" fill="#000000"/>
      <path id="路径_11" data-name="路径 11" d="M229.61,592.789l2.5-2.5a1.425,1.425,0,0,1,2.015,0l2.5,2.5a4.4,4.4,0,0,0,6.982-1.025.611.611,0,0,0-.106-.722l-6.068-6.069.007-.007-.938-.935a4.793,4.793,0,0,0-6.772.006l-.929.929.007.007-6.068,6.069a.618.618,0,0,0-.1.734A4.4,4.4,0,0,0,229.61,592.789Z" transform="translate(-220.7 -582.633)" fill="#000000"/>
      <path id="路径_12" data-name="路径 12" d="M277.6,599.351a1.22,1.22,0,0,0-1.22,1.22v4.268a1.219,1.219,0,0,0,1.22,1.22h1.742a1.829,1.829,0,0,0,1.829-1.829v-2.744a2.2,2.2,0,0,0-2.439-2.134Z" transform="translate(-241.705 -589.157)" fill="#000000"/>
      <path id="路径_13" data-name="路径 13" d="M269.89,592.789l2.5-2.5a1.425,1.425,0,0,1,2.016,0l2.5,2.5a4.4,4.4,0,0,0,6.982-1.025.611.611,0,0,0-.106-.722l-6.069-6.069.008-.007-.938-.935a4.793,4.793,0,0,0-6.772.006l-.929.929.007.007-6.068,6.069a.618.618,0,0,0-.1.734A4.4,4.4,0,0,0,269.89,592.789Z" transform="translate(-236.419 -582.633)" fill="#000000"/>
      <path id="路径_14" data-name="路径 14" d="M272.892,658.36c-1-1.093-1.7-2.378-2.663-3.5a10.65,10.65,0,0,0-2.057-1.94h0l-5.6,2.149c2.892,9.034,12.918,9.9,13.859,9.91a23.16,23.16,0,0,0,4.592-.265,9.71,9.71,0,0,1-3.787-2.063A29.14,29.14,0,0,1,272.892,658.36Z" transform="translate(-236.314 -610.061)" fill="#000000"/>
      <path id="路径_15" data-name="路径 15" d="M253.45,616.147q1.155,0,2.308.085l6.9.2a4.819,4.819,0,0,0,4.571-6.343l-.048-.141a1.04,1.04,0,0,0-1.145-.7l-2.246.528a21.04,21.04,0,0,1-4.813.558L256,610.05a5.525,5.525,0,0,1-4.272-3.765v-.005a1.525,1.525,0,0,0-2.9.02v.005a5.39,5.39,0,0,1-4.046,3.721l-.634-.006a.862.862,0,0,1-.811-.593l-.81-2.468a2.625,2.625,0,0,0-3-1.758l-.473.092a6.987,6.987,0,0,0-3.61,1.924,1.2,1.2,0,0,0,.5,1.993,2.144,2.144,0,0,1,1.084.839h-9.13a17.338,17.338,0,0,1-3.9-.445l-3.086-.712a1.132,1.132,0,0,0-1.176,1.762l3.2,4.484a3.681,3.681,0,0,0,3.144,1.539l6.007-.445q1.152-.086,2.309-.085h4.17a.783.783,0,0,1,.745.539l.6,2.507a.784.784,0,0,1-.745,1.029l-6.848-.072H223.6a.612.612,0,0,0-.586.435,4.4,4.4,0,0,0,4.213,5.662l5.225-.019,9.231.091a.783.783,0,0,1,.745.539l.7,2.124a.785.785,0,0,1-.478.982l-12.237,4.44v0a21.022,21.022,0,0,1-4.715,1.115l-2.291.268a1.041,1.041,0,0,0-.838,1.048l0,.149a4.818,4.818,0,0,0,6.457,4.407l2.994-1.085v0l17.778-6.45a1.122,1.122,0,0,0,.688-1.387l-1.594-5.134a.784.784,0,0,1,.749-1.016h10.529c3.289,0,5.612-3.893,4.572-7.014l-.048-.141c-.16-.481-.644-.106-1.145-.029l-2.246.528a21.039,21.039,0,0,1-4.813.559h-9.312a.785.785,0,0,1-.746-.543l-.593-2.507a.784.784,0,0,1,.746-1.024h6.866Z" transform="translate(-219.512 -591.42)" fill="#000000"/>
    </g>
  </g>
</svg>
