<svg xmlns="http://www.w3.org/2000/svg" width="283.306" height="90.586" viewBox="0 0 283.306 90.586">
  <g id="组_11" data-name="组 11" transform="translate(-217.847 -375.863)">
    <g id="组_8" data-name="组 8">
      <path id="路径_16" data-name="路径 16" d="M398.8,400.462l-5.06,1.168a28.51,28.51,0,0,1-6.4.729H333.326a28.51,28.51,0,0,1-6.4-.729l-5.06-1.168a1.857,1.857,0,0,0-1.929,2.889l5.253,7.353a6.036,6.036,0,0,0,5.156,2.524l9.85-.729q1.89-.139,3.785-.14h32.709q1.895,0,3.785.14l9.85.729a6.037,6.037,0,0,0,5.156-2.524l5.252-7.353A1.857,1.857,0,0,0,398.8,400.462Z" fill="#000000"/>
      <path id="路径_17" data-name="路径 17" d="M340.187,388.7a6.036,6.036,0,0,0,5.156,2.524l9.85-.729q1.89-.139,3.785-.14h2.709q1.895,0,3.785.14l9.85.729a6.037,6.037,0,0,0,5.156-2.524l5.252-7.353a1.857,1.857,0,0,0-1.928-2.889l-5.06,1.168a28.51,28.51,0,0,1-6.4.729H348.326a28.51,28.51,0,0,1-6.4-.729l-5.06-1.168a1.857,1.857,0,0,0-1.929,2.889Z" fill="#000000"/>
      <path id="路径_18" data-name="路径 18" d="M386.4,450.369l-.347-1.97-2.084-11.817-.521-2.955-.748-4.24a7.212,7.212,0,0,0-10.323-5.2,1.015,1.015,0,0,0-.558,1.08l1.781,10.1.521,2.954,1.326,7.52a3,3,0,0,1-2.955,3.521H350.964a5.147,5.147,0,0,1-5.068-6.04l1.858-10.532,1.21-6.868a5.01,5.01,0,0,0-4.008-5.81,16.824,16.824,0,0,0-7.791.431h0a3.8,3.8,0,0,0-1.3,6.6,5.529,5.529,0,0,1,1.8,5.28l-.453,2.57-2.431,13.787-2.3,13.053a1,1,0,0,0,.537,1.07h0a7.215,7.215,0,0,0,8.875-1.935,4.125,4.125,0,0,1,3.2-1.606h30.971a4.1,4.1,0,0,1,3.079,1.452,7.2,7.2,0,0,0,8.673,1.711h0a1,1,0,0,0,.537-1.07Z" fill="#000000"/>
    </g>
    <g id="组_9" data-name="组 9">
      <path id="路径_19" data-name="路径 19" d="M247.322,399.926a16.833,16.833,0,0,0-7.529,1.777h0a3.8,3.8,0,0,0-.146,6.722,5.251,5.251,0,0,1,2.7,4.59v2.911h10V404.951A5.026,5.026,0,0,0,247.322,399.926Z" fill="#000000"/>
      <path id="路径_20" data-name="路径 20" d="M297.568,409.029l-5.06,1.167a28.459,28.459,0,0,1-3.16.544v-6.014a4.306,4.306,0,0,0-3.771-4.272l-.785-.1a11.463,11.463,0,0,0-6.549,1.122,2,2,0,0,0-.306,3.39,3.526,3.526,0,0,1,1.411,2.821v3.237h-18a3,3,0,0,0-3,3v5a2,2,0,0,0,2,2h15.105q1.895,0,3.784.14l.111.008V465.18a1,1,0,0,0,.714.96h0a7.213,7.213,0,0,0,9.286-6.908V421.789a6.03,6.03,0,0,0,4.9-2.518l5.252-7.353A1.857,1.857,0,0,0,297.568,409.029Z" fill="#000000"/>
      <path id="路径_21" data-name="路径 21" d="M238.458,394.066q1.889-.141,3.785-.14h32.21q1.895,0,3.785.14l9.85.729a6.037,6.037,0,0,0,5.156-2.524l5.252-7.353a1.857,1.857,0,0,0-1.928-2.889l-5.06,1.167a28.457,28.457,0,0,1-6.4.73H269.416a8.979,8.979,0,0,1-8.193-6.281l0-.009a2.5,2.5,0,0,0-4.756.033l0,.009a8.755,8.755,0,0,1-8.038,6.248H231.591a28.454,28.454,0,0,1-6.4-.73l-5.06-1.167a1.857,1.857,0,0,0-1.929,2.889l.534.747a24.777,24.777,0,0,1,4.615,14.4v51.861a34.517,34.517,0,0,1-.915,7.894l-.866,3.683a1.705,1.705,0,0,0,1.147,1.878l.232.077a7.9,7.9,0,0,0,10.4-7.5V399.568a5.517,5.517,0,0,1,5.11-5.5Z" fill="#000000"/>
      <path id="路径_22" data-name="路径 22" d="M242.348,451.926V465.18a1,1,0,0,0,.714.96h0a7.213,7.213,0,0,0,9.286-6.908V415.926h-10Z" fill="#000000"/>
      <path id="路径_23" data-name="路径 23" d="M268.348,428.926h-4a2,2,0,0,0-2,2v10a2,2,0,0,0,2,2h5a3,3,0,0,0,3-3v-7A4,4,0,0,0,268.348,428.926Z" fill="#000000"/>
    </g>
    <g id="组_10" data-name="组 10">
      <path id="路径_24" data-name="路径 24" d="M441.071,392.582a2,2,0,0,0-2,2v7a2,2,0,0,0,2,2h2.858a3,3,0,0,0,3-3v-4.5c0-2.209-1.791-3.5-4-3.5Z" fill="#000000"/>
      <path id="路径_25" data-name="路径 25" d="M437.093,392.519l4.094-4.094a2.338,2.338,0,0,1,3.306,0l4.093,4.094a7.213,7.213,0,0,0,11.451-1.681,1,1,0,0,0-.174-1.185l-9.952-9.952.012-.012-1.538-1.533a7.859,7.859,0,0,0-11.105.009l-1.524,1.524.013.012-9.953,9.952a1.016,1.016,0,0,0-.163,1.2A7.213,7.213,0,0,0,437.093,392.519Z" fill="#000000"/>
      <path id="路径_26" data-name="路径 26" d="M481.351,392.582a2,2,0,0,0-2,2v7a2,2,0,0,0,2,2h2.857a3,3,0,0,0,3-3v-4.5c0-2.209-1.791-3.5-4-3.5Z" fill="#000000"/>
      <path id="路径_27" data-name="路径 27" d="M477.373,392.519l4.094-4.094a2.336,2.336,0,0,1,3.3,0l4.094,4.094a7.213,7.213,0,0,0,11.451-1.681,1,1,0,0,0-.174-1.185L490.19,379.7l.013-.012-1.538-1.533a7.86,7.86,0,0,0-11.106.009l-1.523,1.524.012.012-9.952,9.952a1.015,1.015,0,0,0-.163,1.2A7.213,7.213,0,0,0,477.373,392.519Z" fill="#000000"/>
      <path id="路径_28" data-name="路径 28" d="M482.469,455.072c-1.637-1.791-2.781-3.9-4.367-5.742a17.535,17.535,0,0,0-3.375-3.182h0l-9.189,3.524c4.743,14.816,21.185,16.242,22.728,16.253a37.968,37.968,0,0,0,7.531-.435c-2.482-.7-3.4-1.316-6.211-3.383C486.689,459.975,484.895,457.727,482.469,455.072Z" fill="#000000"/>
      <path id="路径_29" data-name="路径 29" d="M478.138,416.414q1.895,0,3.786.14l11.32.321a7.9,7.9,0,0,0,7.5-10.4l-.077-.232a1.707,1.707,0,0,0-1.879-1.147l-3.683.866a34.5,34.5,0,0,1-7.894.915l-4.9-.461a9.057,9.057,0,0,1-7-6.174l0-.01a2.5,2.5,0,0,0-4.756.034l0,.008a8.836,8.836,0,0,1-6.636,6.1l-1.038-.009a1.414,1.414,0,0,1-1.331-.973l-1.328-4.048a4.307,4.307,0,0,0-4.915-2.883l-.776.152a11.457,11.457,0,0,0-5.921,3.155,1.977,1.977,0,0,0,.819,3.27,3.52,3.52,0,0,1,1.777,1.375H436.225a28.436,28.436,0,0,1-6.4-.729l-5.061-1.168a1.857,1.857,0,0,0-1.928,2.889l5.252,7.354a6.043,6.043,0,0,0,5.156,2.524l9.851-.73q1.89-.139,3.786-.14h6.838a1.286,1.286,0,0,1,1.222.885l.989,4.111a1.285,1.285,0,0,1-1.221,1.687l-11.23-.118h-14.3a1,1,0,0,0-.961.715,7.213,7.213,0,0,0,6.909,9.285l8.569-.03,15.138.148a1.285,1.285,0,0,1,1.221.885l1.145,3.483a1.286,1.286,0,0,1-.783,1.61l-20.069,7.282v0a34.543,34.543,0,0,1-7.734,1.828l-3.758.44a1.705,1.705,0,0,0-1.375,1.718l.006.245a7.9,7.9,0,0,0,10.589,7.227l4.911-1.778v0l29.156-10.578a1.839,1.839,0,0,0,1.129-2.275l-2.614-8.419a1.286,1.286,0,0,1,1.228-1.668h17.268c5.394,0,9.2-6.384,7.5-11.5l-.077-.232c-.263-.789-1.057-.173-1.879-.047l-3.683.866a34.5,34.5,0,0,1-7.893.915H467.85a1.285,1.285,0,0,1-1.223-.891l-.973-4.111a1.287,1.287,0,0,1,1.224-1.681h11.26Z" fill="#000000"/>
    </g>
  </g>
</svg>
